<?xml version="1.0" encoding="UTF-8" standalone="no"?> <!-- Generator: Adobe Illustrator 21.1.0, SVG Export Plug-In . SVG Version: 6.00 Build 0) -->
<svg xmlns:dc="http://purl.org/dc/elements/1.1/" xmlns:cc="http://creativecommons.org/ns#"
     xmlns:rdf="http://www.w3.org/1999/02/22-rdf-syntax-ns#" xmlns:svg="http://www.w3.org/2000/svg"
     xmlns="http://www.w3.org/2000/svg" xmlns:sodipodi="http://sodipodi.sourceforge.net/DTD/sodipodi-0.dtd"
     xmlns:inkscape="http://www.inkscape.org/namespaces/inkscape" id="Layer_1" x="0px" y="0px" viewBox="0 0 223 80"
     style="enable-background:new 0 0 223 80;" xml:space="preserve" sodipodi:docname="logo_white.svg"
     inkscape:version="0.92.4 (5da689c313, 2019-01-14)"><metadata id="metadata45"></metadata>
    <defs id="defs43"></defs>
    <style type="text/css" id="style2"> .st0{fill:#282828;} .st1{fill:#7AC143;} </style>
    <title id="title4">logo_black</title>
    <style id="style47" type="text/css"> .st0{fill-rule:evenodd;clip-rule:evenodd;fill:#5D7D34;} .st1{fill:#070707;stroke:#000000;stroke-width:0.25;stroke-miterlimit:10;} </style>
    <style id="style99" type="text/css"> .st0{fill-rule:evenodd;clip-rule:evenodd;fill:#FFFFFF;} .st1{fill:#FFFFFF;stroke:#FFFFFF;stroke-width:0.25;stroke-miterlimit:10;} </style>
    <g id="g149" transform="translate(1.544998,-0.883846)"><g transform="translate(-273.845,-206.857)" id="Group_552_1_-7"> <path
            d="m 312.7,241.6 c -3,-1.9 -6.5,-3 -10,-3 -1,0 -2,0.1 -2.9,0.2 -0.4,-0.6 -0.8,-1.2 -1.1,-1.8 v 0 l -0.1,-0.2 c -1.2,-2.6 -1.3,-5.5 -0.3,-8.2 0.1,-0.2 0.2,-0.4 0.3,-0.6 5.4,-2.3 11.7,0.3 14,5.7 0.9,2.6 1,5.4 0.1,7.9 m -11.4,-1.1 c 0.4,0 0.9,-0.1 1.4,-0.1 3,0 5.9,0.8 8.4,2.3 -3.5,1 -7.1,0.1 -9.8,-2.2 z m -2.3,0.3 c 3,3.3 7.6,4.7 11.9,3.8 -3.7,4.6 -10.4,5.3 -15,1.6 -0.3,-0.2 -0.6,-0.5 -0.8,-0.8 -0.7,-0.7 -1.2,-1.4 -1.7,-2.2 1.7,-1.1 3.6,-1.9 5.6,-2.4 z m 18.4,8.6 c 4.3,8.2 1.1,18.3 -7,22.6 -2.1,1.1 -4.4,1.8 -6.8,1.9 v 0 -8.1 -12.9 h -1.8 v 22.8 c 0.6,0 1.2,0 1.8,0 4.4,-0.2 8.7,-2 11.9,-5.1 0.1,-0.1 0.2,-0.2 0.3,-0.3 5.2,-5.2 6.9,-13.1 4.1,-20 -0.2,-0.6 -0.5,-1.1 -0.8,-1.7 -0.9,-1.7 -2,-3.2 -3.4,-4.6 -0.3,-0.3 -0.7,-0.6 -1,-0.9 -0.2,-0.1 -0.3,-0.3 -0.5,-0.4 2.6,-6.4 -0.4,-13.7 -6.8,-16.3 -1.5,-0.6 -3.1,-0.9 -4.7,-0.9 -1.9,0 -3.8,0.4 -5.5,1.3 -0.5,0.9 -0.8,1.8 -1,2.8 -0.6,2.7 -0.4,5.5 0.7,8 v 0 l 0.1,0.2 c 0.3,0.6 0.6,1.1 0.9,1.6 -2.5,0.7 -4.7,1.8 -6.7,3.4 2.6,6.4 9.9,9.4 16.3,6.8 2.5,-1 4.6,-2.8 6,-5.1 0.4,0.3 0.7,0.6 1.1,1 1,1 2,2.4 2.8,3.9 z"
            class="st0" id="Path_640_1_-7" inkscape:connector-curvature="0"
            style="clip-rule:evenodd;fill:#ffffff;fill-rule:evenodd"></path> <path
            d="m 286.8,251.9 c -2.9,8.8 1.9,18.2 10.6,21.1 1.1,0.4 2.2,0.6 3.4,0.7 v 1.8 c -4.1,-0.4 -7.9,-2.2 -10.9,-5 -0.1,-0.1 -0.2,-0.2 -0.3,-0.3 -5,-5 -6.7,-12.4 -4.4,-19.1 0.5,0.2 1,0.5 1.6,0.8 z"
            class="st0" id="Path_641_1_-2" inkscape:connector-curvature="0"
            style="clip-rule:evenodd;fill:#ffffff;fill-rule:evenodd"></path> <path
            d="m 286.8,268.6 c -6.4,-4.8 -10.4,-12.3 -10.6,-20.3 3.2,0.1 6.3,0.8 9.3,2 0.6,0.2 1.1,0.5 1.7,0.8 6.7,3.4 11.7,9.4 13.7,16.7 v -5.2 c -2.7,-5.7 -7.3,-10.3 -12.9,-13.1 -0.5,-0.3 -1.1,-0.5 -1.7,-0.8 -3.2,-1.3 -6.6,-2.1 -10,-2.2 -0.3,0 -0.6,0 -0.9,0 -0.3,0 -0.6,0 -0.9,0 0,0.3 0,0.6 0,0.9 0,0.3 0,0.6 0,0.9 0.4,11.3 7.5,21.4 18,25.5 -2.3,-1.4 -4.2,-3.1 -5.7,-5.2"
            class="st0" id="Path_642_1_-3" inkscape:connector-curvature="0"
            style="clip-rule:evenodd;fill:#ffffff;fill-rule:evenodd"></path> <path
            d="m 319.5,226.9 c 0.7,0.6 1.3,1.1 1.9,1.7 4.4,4.4 7.1,10.2 7.7,16.4 h 0.1 c 0.3,0 0.6,0 0.9,0 0.3,0 0.5,0 0.8,0 -1.3,-15.6 -14.9,-27.2 -30.5,-26 -13.8,1.1 -24.8,12.1 -26,26 0.3,0 0.5,0 0.8,0 0.3,0 0.6,0 0.9,0 h 0.1 c 1.2,-13.7 12.7,-24.2 26.4,-24.2 0.3,0 0.6,0 0.9,0 2.2,0.1 4.4,0.4 6.6,1 1.3,0.2 2.6,0.7 3.7,1.4 2,1 3.9,2.2 5.7,3.7"
            class="st0" id="Path_643_1_-3" inkscape:connector-curvature="0"
            style="clip-rule:evenodd;fill:#ffffff;fill-rule:evenodd"></path> <path
            d="m 318.5,268.6 c 6.4,-4.8 10.4,-12.3 10.6,-20.3 -3.2,0.1 -6.3,0.8 -9.3,2 -0.6,0.2 -1.1,0.5 -1.7,0.8 -6.7,3.4 -11.7,9.4 -13.7,16.7 v -5.2 c 2.7,-5.7 7.3,-10.3 12.9,-13.1 0.5,-0.3 1.1,-0.5 1.7,-0.8 3.2,-1.3 6.6,-2.1 10,-2.2 0.3,0 0.6,0 0.9,0 0.3,0 0.6,0 0.9,0 0,0.3 0,0.6 0,0.9 0,0.3 0,0.6 0,0.9 -0.4,11.3 -7.5,21.4 -18,25.5 2.3,-1.4 4.2,-3.1 5.7,-5.2"
            class="st0" id="Path_644_1_-4" inkscape:connector-curvature="0"
            style="clip-rule:evenodd;fill:#ffffff;fill-rule:evenodd"></path> <path
            d="m 294.8,231.5 c -2,0.3 -4,1 -5.8,1.9 0.5,2.6 1.9,5 3.9,6.8 0.6,-0.3 1.2,-0.6 1.8,-0.9 -1.6,-1.3 -2.9,-3 -3.6,-5 1.2,-0.5 2.4,-0.9 3.7,-1.1 0.1,-0.5 0,-1.1 0,-1.7"
            class="st0" id="Path_645_1_-5" inkscape:connector-curvature="0"
            style="clip-rule:evenodd;fill:#ffffff;fill-rule:evenodd"></path> </g>
        <g id="g126"> <path id="path112"
                            d="M 75.9,40.3 H 81 v 0.4 c 0,2 -0.6,3.5 -1.7,4.6 -1.1,1.1 -2.6,1.7 -4.6,1.7 -0.6,0 -1.1,-0.1 -1.7,-0.2 -0.6,-0.1 -1,-0.3 -1.5,-0.5 -1,-0.6 -1.8,-1.3 -2.4,-2.3 -0.6,-1 -0.8,-2.1 -0.8,-3.4 0,-1 0.2,-2 0.5,-2.8 0.3,-0.8 0.8,-1.6 1.5,-2.2 0.6,-0.5 1.2,-0.9 2,-1.2 0.8,-0.3 1.7,-0.4 2.6,-0.4 1.2,0 2.2,0.2 3.1,0.7 0.9,0.4 1.6,1.1 2.2,2 l -1.2,1 C 78.6,36.9 78,36.4 77.3,36 76.6,35.6 75.9,35.4 75,35.4 c -1.4,0 -2.6,0.5 -3.5,1.5 -0.9,1 -1.4,2.3 -1.4,3.8 0,1.5 0.5,2.7 1.4,3.7 0.9,1 2.1,1.4 3.5,1.4 1.2,0 2.3,-0.4 3.1,-1.1 0.8,-0.8 1.3,-1.7 1.4,-3 h -3.6 z"
                            class="st1" inkscape:connector-curvature="0"
                            style="fill:#ffffff;stroke:#ffffff;stroke-width:0.25;stroke-miterlimit:10"></path>
            <path id="path114" d="m 94.9,33.8 5.7,12.9 H 99 l -1.6,-3.8 h -4.9 l -1.6,3.8 h -1.6 z m 0,3.3 -2,4.6 h 4 z"
                  class="st1" inkscape:connector-curvature="0"
                  style="fill:#ffffff;stroke:#ffffff;stroke-width:0.25;stroke-miterlimit:10"></path>
            <path id="path116"
                  d="M 110.2,46.7 V 34.3 h 2.9 c 0.8,0 1.4,0 1.8,0.1 0.4,0.1 0.7,0.3 1,0.5 0.4,0.3 0.7,0.7 0.9,1.2 0.2,0.5 0.3,1 0.3,1.6 0,1 -0.3,1.8 -0.9,2.3 -0.6,0.5 -1.4,0.8 -2.5,0.8 h -0.3 l 4.8,5.9 h -1.9 l -4.5,-5.9 h -0.2 v 5.9 c 0,0 -1.4,0 -1.4,0 z m 1.5,-11.2 v 4.2 h 1.1 c 1.2,0 1.9,-0.1 2.3,-0.4 0.4,-0.3 0.6,-0.8 0.6,-1.6 0,-0.8 -0.2,-1.4 -0.6,-1.7 -0.4,-0.3 -1.2,-0.5 -2.3,-0.5 z"
                  class="st1" inkscape:connector-curvature="0"
                  style="fill:#ffffff;stroke:#ffffff;stroke-width:0.25;stroke-miterlimit:10"></path>
            <path id="path118"
                  d="M 128,46.7 V 34.3 h 2.4 c 1.8,0 3,0.1 3.7,0.3 0.7,0.2 1.4,0.5 1.9,0.9 0.7,0.6 1.3,1.3 1.6,2.1 0.4,0.9 0.6,1.8 0.6,3 0,1.1 -0.2,2.1 -0.5,2.9 -0.4,0.9 -0.9,1.6 -1.6,2.1 -0.5,0.4 -1.2,0.7 -1.9,0.9 -0.7,0.2 -1.8,0.3 -3.2,0.3 h -0.5 z m 1.5,-1.4 h 0.9 c 1.5,0 2.6,-0.1 3.2,-0.2 0.6,-0.1 1.1,-0.4 1.5,-0.7 0.5,-0.4 0.9,-1 1.2,-1.6 0.3,-0.7 0.4,-1.4 0.4,-2.3 0,-0.9 -0.1,-1.6 -0.4,-2.3 -0.3,-0.7 -0.7,-1.2 -1.2,-1.6 -0.4,-0.3 -0.9,-0.6 -1.5,-0.7 -0.6,-0.1 -1.7,-0.2 -3.2,-0.2 h -0.9 z"
                  class="st1" inkscape:connector-curvature="0"
                  style="fill:#ffffff;stroke:#ffffff;stroke-width:0.25;stroke-miterlimit:10"></path>
            <path id="path120"
                  d="M 148,46.7 V 34.3 h 6.6 v 1.4 h -5.1 v 3.6 h 5.1 v 1.4 h -5.1 v 4.8 h 5.1 v 1.4 H 148 Z"
                  class="st1" inkscape:connector-curvature="0"
                  style="fill:#ffffff;stroke:#ffffff;stroke-width:0.25;stroke-miterlimit:10"></path>
            <path id="path122" d="M 165.3,46.7 V 33.8 l 9.1,10 v -9.5 h 1.4 v 12.9 l -9.1,-9.8 v 9.4 z" class="st1"
                  inkscape:connector-curvature="0"
                  style="fill:#ffffff;stroke:#ffffff;stroke-width:0.25;stroke-miterlimit:10"></path>
            <path id="path124"
                  d="m 189.6,33.8 5.7,12.9 h -1.6 l -1.6,-3.8 h -4.9 l -1.6,3.8 H 184 Z m 0,3.3 -2,4.6 h 4 z"
                  class="st1" inkscape:connector-curvature="0"
                  style="fill:#ffffff;stroke:#ffffff;stroke-width:0.25;stroke-miterlimit:10"></path> </g></g></svg>