<?xml version="1.0" standalone="no"?>
<!DOCTYPE svg PUBLIC "-//W3C//DTD SVG 20010904//EN"
 "http://www.w3.org/TR/2001/REC-SVG-20010904/DTD/svg10.dtd">
<svg version="1.0" xmlns="http://www.w3.org/2000/svg"
 width="1016.000000pt" height="481.000000pt" viewBox="0 0 1016.000000 481.000000"
 preserveAspectRatio="xMidYMid meet">

<g transform="translate(0.000000,481.000000) scale(0.100000,-0.100000)"
fill="#000000" stroke="none">
<path d="M5 2405 c0 -1325 1 -1866 2 -1202 2 665 2 1749 0 2410 -1 661 -2 118
-2 -1208z"/>
<path d="M3530 2405 l0 -2405 3315 0 3315 0 0 535 0 535 -270 0 -270 0 0 450
0 450 120 0 120 0 0 -345 0 -345 150 0 150 0 0 1765 0 1765 -3315 0 -3315 0 0
-2405z m1026 1390 c49 -9 119 -25 157 -36 l67 -21 0 -159 c0 -87 -2 -159 -4
-159 -2 0 -48 22 -103 49 -123 61 -175 74 -259 69 -60 -4 -69 -7 -96 -37 -26
-30 -30 -39 -25 -78 5 -51 31 -83 97 -120 25 -14 81 -46 125 -71 265 -151 350
-247 369 -417 9 -74 -12 -182 -48 -253 -52 -103 -175 -194 -301 -222 -71 -16
-247 -14 -334 5 -143 30 -181 44 -182 68 0 12 -6 92 -13 177 -7 85 -11 158 -9
162 2 3 38 -13 81 -37 118 -67 191 -89 297 -89 69 -1 98 3 123 17 47 26 74 73
68 119 -8 68 -71 124 -261 233 -203 117 -275 194 -311 335 -45 176 34 345 200
425 114 55 213 65 362 40z m5191 4 c43 -5 115 -21 161 -35 l82 -25 0 -159 c0
-88 -2 -160 -4 -160 -2 0 -41 20 -87 44 -101 53 -174 76 -245 76 -61 0 -90 -9
-121 -39 -43 -40 -26 -129 31 -171 12 -8 75 -46 141 -84 236 -135 308 -193
356 -292 26 -52 33 -81 37 -146 13 -229 -112 -403 -334 -463 -86 -24 -245 -22
-374 5 -159 32 -154 28 -161 136 -4 50 -10 133 -14 184 l-7 93 33 -21 c213
-129 401 -158 499 -76 32 28 49 74 42 114 -3 13 -28 47 -56 75 -50 49 -84 72
-256 170 -106 61 -201 154 -238 232 -24 52 -27 69 -27 168 0 100 2 115 27 161
53 101 164 182 283 208 86 18 132 19 232 5z m-3577 -184 l0 -145 -220 0 -220
0 0 -550 0 -550 -165 0 -165 0 0 550 0 550 -216 2 -215 3 -2 143 -2 142 603 0
602 0 0 -145z m1000 0 l0 -145 -265 0 -265 0 0 -125 0 -125 230 0 230 0 0
-117 c0 -182 27 -163 -236 -163 l-224 0 0 -140 0 -140 270 0 270 0 0 -145 0
-145 -430 0 -430 0 0 695 0 695 425 0 425 0 0 -145z m590 -550 l0 -695 -165 0
-165 0 0 695 0 695 165 0 165 0 0 -695z m965 671 c174 -51 253 -141 262 -301
8 -136 -37 -222 -151 -290 l-59 -34 29 -11 c51 -18 88 -42 132 -84 62 -60 84
-113 90 -223 4 -79 1 -102 -19 -160 -42 -117 -134 -191 -297 -235 -67 -18
-114 -22 -354 -26 l-278 -4 0 697 0 697 293 -5 c237 -3 303 -7 352 -21z
m-2140 -1780 c173 -65 285 -217 301 -409 12 -133 -35 -256 -132 -355 -91 -91
-184 -133 -309 -140 -104 -5 -155 4 -243 45 -71 34 -180 140 -210 206 -81 173
-64 355 46 500 71 92 179 157 302 181 58 11 176 -3 245 -28z m-1970 -86 l0
-95 -152 -3 -153 -3 0 -77 0 -77 142 0 143 0 0 -95 0 -95 -142 -3 -143 -3 0
-174 0 -175 -120 0 -120 0 0 450 0 450 273 -2 272 -3 0 -95z m665 -245 l0
-345 155 0 155 0 0 -105 0 -105 -275 0 -275 0 0 450 0 450 120 0 120 0 0 -345z
m2480 335 c79 -11 117 -29 164 -77 66 -69 90 -207 52 -306 -16 -42 -93 -127
-115 -127 -5 0 -21 -4 -36 -10 l-25 -10 120 -180 120 -180 -137 0 -138 0 -94
165 c-52 91 -98 168 -103 171 -4 3 -8 -72 -8 -165 l0 -171 -110 0 -110 0 0
450 0 450 178 0 c97 0 206 -5 242 -10z m1181 -17 c10 -25 260 -754 279 -813 4
-14 11 -33 15 -43 7 -16 -1 -17 -116 -15 l-123 3 -20 78 -20 77 -172 0 -172 0
-21 -69 c-12 -38 -21 -74 -21 -80 0 -7 -40 -11 -120 -11 -68 0 -120 4 -120 9
0 5 27 90 61 188 33 98 99 291 145 428 46 138 86 256 89 263 3 9 44 12 155 12
l150 0 11 -27z"/>
<path d="M8380 3368 l0 -158 73 0 c94 0 165 21 202 60 23 24 30 41 33 88 8
117 -45 158 -211 164 l-97 3 0 -157z"/>
<path d="M8380 2799 l0 -182 108 5 c90 4 115 8 150 28 98 55 119 182 45 270
-33 40 -105 60 -215 60 l-88 0 0 -181z"/>
<path d="M6325 1761 c-47 -21 -98 -76 -121 -129 -20 -46 -23 -163 -5 -217 33
-99 115 -158 216 -159 79 0 138 31 182 97 73 108 65 257 -17 351 -66 74 -167
97 -255 57z"/>
<path d="M7562 1664 l3 -119 58 3 c103 4 146 47 134 134 -9 66 -42 92 -127 96
l-71 4 3 -118z"/>
<path d="M8771 1770 c-7 -25 -33 -112 -57 -193 -25 -82 -43 -154 -41 -160 2
-7 39 -10 113 -8 60 1 110 4 112 5 1 2 -18 68 -42 147 -25 79 -51 169 -59 199
l-14 55 -12 -45z"/>
<path d="M320 2410 l0 -2090 1450 0 1450 0 -2 2088 -3 2087 -1447 3 -1448 2 0
-2090z m854 1815 c76 -21 192 -78 233 -115 37 -33 103 -117 103 -130 0 -5 -20
-19 -44 -31 -25 -12 -70 -43 -102 -68 -31 -25 -63 -50 -70 -56 -10 -7 -28 4
-69 45 -30 29 -57 51 -60 49 -3 -3 13 -42 36 -85 l40 -80 -35 -53 c-35 -52
-70 -147 -82 -222 -5 -26 -12 -39 -22 -39 -9 0 -44 29 -78 64 -109 111 -184
303 -184 471 0 130 44 258 92 269 39 8 180 -3 242 -19z m836 -249 c36 -15 80
-33 98 -38 30 -11 32 -14 32 -58 0 -187 -116 -407 -268 -511 -121 -82 -234
-120 -377 -126 -105 -5 -132 -1 -240 32 -17 5 -24 -1 -38 -30 -9 -20 -17 -38
-17 -40 0 -3 367 -5 815 -5 448 0 815 -3 815 -7 0 -5 -15 -24 -33 -44 -17 -19
-110 -129 -206 -242 l-175 -207 -605 0 c-676 0 -641 3 -725 -71 -73 -63 -96
-178 -59 -282 21 -59 94 -131 149 -146 25 -7 177 -11 417 -11 207 0 377 -3
377 -8 0 -4 -46 -61 -102 -128 -57 -66 -150 -175 -206 -242 -57 -67 -111 -122
-120 -122 -10 -1 -100 0 -202 0 -223 1 -289 13 -417 75 -80 39 -109 60 -187
138 -75 75 -101 109 -138 182 -77 152 -83 178 -83 360 1 146 3 167 27 238 72
214 236 385 447 466 44 17 87 31 94 31 8 0 43 48 78 108 71 120 170 227 285
308 38 26 71 49 73 51 2 2 2 6 -1 9 -15 14 -167 -88 -313 -209 -71 -59 -76
-53 -49 56 23 96 46 149 98 221 70 98 192 201 283 238 99 40 149 48 278 45
116 -3 137 -6 195 -31z m356 -1797 c294 -41 522 -222 625 -496 32 -85 33 -93
33 -238 1 -157 -6 -199 -51 -308 -37 -90 -90 -166 -172 -247 -82 -80 -152
-127 -253 -167 -124 -50 -157 -52 -950 -53 -406 0 -738 3 -738 8 1 4 11 19 23
33 12 15 105 124 205 243 l184 216 516 0 c308 0 531 4 552 10 62 17 126 65
157 117 25 43 28 58 28 133 0 74 -3 91 -27 131 -27 45 -77 87 -133 110 -21 9
-126 15 -338 18 l-309 6 179 211 c98 116 192 227 208 247 30 36 31 37 107 37
42 0 112 -5 154 -11z"/>
</g>
</svg>
